<?xml version="1.0" encoding="UTF-8"?>
<!DOCTYPE svg PUBLIC "-//W3C//DTD SVG 1.1//EN" "http://www.w3.org/Graphics/SVG/1.1/DTD/svg11.dtd">
<svg xmlns="http://www.w3.org/2000/svg" version="1.1" width="296px" height="328px" style="shape-rendering:geometricPrecision; text-rendering:geometricPrecision; image-rendering:optimizeQuality; fill-rule:evenodd; clip-rule:evenodd" xmlns:xlink="http://www.w3.org/1999/xlink">
<g><path style="opacity:1" fill="#222222" d="M 95.5,-0.5 C 111.167,-0.5 126.833,-0.5 142.5,-0.5C 142.5,108.833 142.5,218.167 142.5,327.5C 126.833,327.5 111.167,327.5 95.5,327.5C 95.5,248.167 95.5,168.833 95.5,89.5C 63.5,89.5 31.5,89.5 -0.5,89.5C -0.5,72.5 -0.5,55.5 -0.5,38.5C 31.5,38.5 63.5,38.5 95.5,38.5C 95.5,25.5 95.5,12.5 95.5,-0.5 Z"/></g>
<g><path style="opacity:1" fill="#25cf7a" d="M 142.5,-0.5 C 157.5,-0.5 172.5,-0.5 187.5,-0.5C 187.5,12.8333 187.5,26.1667 187.5,39.5C 234.842,32.5823 269.009,50.249 290,92.5C 292.015,98.9108 293.848,105.244 295.5,111.5C 295.5,118.833 295.5,126.167 295.5,133.5C 286.815,176.351 260.815,200.851 217.5,207C 207.506,207.5 197.506,207.666 187.5,207.5C 187.5,247.5 187.5,287.5 187.5,327.5C 172.5,327.5 157.5,327.5 142.5,327.5C 142.5,218.167 142.5,108.833 142.5,-0.5 Z M 193.5,88.5 C 203.863,88.3682 214.197,88.8682 224.5,90C 242.407,96.6495 250.574,109.483 249,128.5C 245.261,144.906 235.094,154.406 218.5,157C 208.172,157.5 197.839,157.666 187.5,157.5C 187.5,134.833 187.5,112.167 187.5,89.5C 189.735,89.7947 191.735,89.4614 193.5,88.5 Z"/></g>
</svg>
